<svg width="50" height="52" viewBox="0 0 50 52" fill="none" xmlns="http://www.w3.org/2000/svg">
<ellipse cx="25" cy="26" rx="25" ry="26" fill="#FFD05B"/>
<path d="M26.0833 36.575L19.0624 28.175C18.9791 28.075 18.9202 27.9667 18.8858 27.85C18.8508 27.7333 18.8333 27.6083 18.8333 27.475C18.8333 27.3417 18.8508 27.2167 18.8858 27.1C18.9202 26.9833 18.9791 26.875 19.0624 26.775L26.0833 18.35C26.2777 18.1167 26.5208 18 26.8124 18C27.1041 18 27.3541 18.125 27.5624 18.375C27.7708 18.625 27.8749 18.9167 27.8749 19.25C27.8749 19.5833 27.7708 19.875 27.5624 20.125L21.4374 27.475L27.5624 34.825C27.7569 35.0583 27.8541 35.3457 27.8541 35.687C27.8541 36.029 27.7499 36.325 27.5416 36.575C27.3333 36.825 27.0902 36.95 26.8124 36.95C26.5346 36.95 26.2916 36.825 26.0833 36.575Z" fill="black"/>
</svg>
