<svg width="29" height="35" viewBox="0 0 29 35" fill="none" xmlns="http://www.w3.org/2000/svg">
<path d="M3.60478 0C1.61391 0 0 1.46906 0 3.28125V31.7188C0 33.5309 1.61391 35 3.60478 35H25.2335C27.2243 35 28.8383 33.5309 28.8383 31.7188V3.28125C28.8383 1.46906 27.2243 0 25.2335 0H3.60478ZM20.6432 10.9199L20.4271 10.9375H8.41116C7.74755 10.9375 7.20957 10.4478 7.20957 9.84375C7.20957 9.30681 7.63465 8.86023 8.19517 8.76763L8.41116 8.75H20.4271C21.0906 8.75 21.6287 9.23969 21.6287 9.84375C21.6287 10.3807 21.2036 10.8273 20.6432 10.9199ZM20.6432 18.576L20.4271 18.5938H8.41116C7.74755 18.5938 7.20957 18.104 7.20957 17.5C7.20957 16.9631 7.63465 16.5165 8.19517 16.4239L8.41116 16.4062H20.4271C21.0906 16.4062 21.6287 16.8959 21.6287 17.5C21.6287 18.037 21.2036 18.4835 20.6432 18.576ZM20.6432 26.2323L20.4271 26.25H8.41116C7.74755 26.25 7.20957 25.7602 7.20957 25.1562C7.20957 24.6192 7.63465 24.1727 8.19517 24.0802L8.41116 24.0625H20.4271C21.0906 24.0625 21.6287 24.5523 21.6287 25.1562C21.6287 25.6933 21.2036 26.1398 20.6432 26.2323Z" fill="#2F2E41"/>
</svg>
