<svg width="6" height="24" viewBox="0 0 6 24" fill="none" xmlns="http://www.w3.org/2000/svg">
<path fill-rule="evenodd" clip-rule="evenodd" d="M3 0C1.34315 0 0 1.34315 0 3C0 4.65685 1.34315 6 3 6C4.65685 6 6 4.65685 6 3C6 1.34315 4.65685 0 3 0Z" fill="#3F3D56"/>
<path fill-rule="evenodd" clip-rule="evenodd" d="M3 9C1.34315 9 0 10.3431 0 12C0 13.6569 1.34315 15 3 15C4.65685 15 6 13.6569 6 12C6 10.3431 4.65685 9 3 9Z" fill="#3F3D56"/>
<path fill-rule="evenodd" clip-rule="evenodd" d="M3 18C1.34315 18 0 19.3431 0 21C0 22.6569 1.34315 24 3 24C4.65685 24 6 22.6569 6 21C6 19.3431 4.65685 18 3 18Z" fill="#3F3D56"/>
</svg>
