<svg width="32" height="32" viewBox="0 0 32 32" fill="none" xmlns="http://www.w3.org/2000/svg">
<path d="M25.3342 26.666H6.66756C6.31394 26.666 5.9748 26.8065 5.72475 27.0565C5.4747 27.3066 5.33423 27.6457 5.33423 27.9993C5.33423 28.353 5.4747 28.6921 5.72475 28.9422C5.9748 29.1922 6.31394 29.3327 6.66756 29.3327H25.3342C25.6879 29.3327 26.027 29.1922 26.277 28.9422C26.5271 28.6921 26.6676 28.353 26.6676 27.9993C26.6676 27.6457 26.5271 27.3066 26.277 27.0565C26.027 26.8065 25.6879 26.666 25.3342 26.666Z" fill="#231F20"/>
<path d="M6.66779 23.9995H6.78779L12.3478 23.4928C12.9569 23.4321 13.5265 23.1638 13.9611 22.7328L25.9611 10.7328C26.4269 10.2408 26.6786 9.58416 26.6611 8.90687C26.6436 8.22957 26.3583 7.58683 25.8678 7.11949L22.2145 3.46615C21.7376 3.01828 21.1128 2.7613 20.4589 2.74409C19.805 2.72688 19.1675 2.95064 18.6678 3.37282L6.66779 15.3728C6.23682 15.8074 5.96847 16.3771 5.90779 16.9862L5.33446 22.5462C5.3165 22.7414 5.34184 22.9383 5.40868 23.1227C5.47551 23.307 5.5822 23.4744 5.72113 23.6128C5.84571 23.7364 5.99347 23.8342 6.15592 23.9005C6.31837 23.9669 6.49232 24.0005 6.66779 23.9995ZM20.3611 5.33282L24.0011 8.97282L21.3345 11.5728L17.7611 7.99949L20.3611 5.33282Z" fill="#231F20"/>
</svg>
