<svg width="28" height="35" viewBox="0 0 28 35" fill="none" xmlns="http://www.w3.org/2000/svg">
<path d="M3.69623 0C1.85158 0 0.356201 1.46906 0.356201 3.28125V31.7188C0.356201 33.5309 1.85158 35 3.69623 35H23.7364C25.581 35 27.0764 33.5309 27.0764 31.7188V3.28125C27.0764 1.46906 25.581 0 23.7364 0H3.69623ZM19.4832 10.9199L19.283 10.9375H8.1496C7.53472 10.9375 7.03625 10.4478 7.03625 9.84375C7.03625 9.30681 7.43011 8.86023 7.94946 8.76763L8.1496 8.75H19.283C19.8978 8.75 20.3964 9.23969 20.3964 9.84375C20.3964 10.3807 20.0025 10.8273 19.4832 10.9199ZM19.4832 18.576L19.283 18.5938H8.1496C7.53472 18.5938 7.03625 18.104 7.03625 17.5C7.03625 16.9631 7.43011 16.5165 7.94946 16.4239L8.1496 16.4062H19.283C19.8978 16.4062 20.3964 16.8959 20.3964 17.5C20.3964 18.037 20.0025 18.4835 19.4832 18.576ZM19.4832 26.2323L19.283 26.25H8.1496C7.53472 26.25 7.03625 25.7602 7.03625 25.1562C7.03625 24.6192 7.43011 24.1727 7.94946 24.0802L8.1496 24.0625H19.283C19.8978 24.0625 20.3964 24.5523 20.3964 25.1562C20.3964 25.6933 20.0025 26.1398 19.4832 26.2323Z" fill="white"/>
</svg>
