<svg width="38" height="40" viewBox="0 0 38 40" fill="none" xmlns="http://www.w3.org/2000/svg">
<path fill-rule="evenodd" clip-rule="evenodd" d="M6.23978 0C4.60151 0 3.03034 0.702388 1.87191 1.95265C0.713483 3.2029 0.0626831 4.89862 0.0626831 6.66675V33.3337C0.0626831 35.1019 0.713483 36.7976 1.87191 38.0478C3.03034 39.2981 4.60151 40.0005 6.23978 40.0005H14.4759C16.1142 40.0005 17.6853 39.2981 18.8438 38.0478C20.0022 36.7976 20.653 35.1019 20.653 33.3337V22.2225H30.0957L25.3744 27.3181C24.9993 27.7372 24.7918 28.2986 24.7965 28.8812C24.8011 29.4639 25.0177 30.0213 25.3995 30.4333C25.7812 30.8453 26.2976 31.079 26.8375 31.0841C27.3774 31.0892 27.8975 30.8652 28.2858 30.4604L36.522 21.5714C36.908 21.1546 37.1248 20.5895 37.1248 20.0002C37.1248 19.411 36.908 18.8458 36.522 18.4291L28.2858 9.54011C28.0959 9.32787 27.8687 9.15857 27.6175 9.0421C27.3663 8.92564 27.0961 8.86434 26.8227 8.86177C26.5493 8.85921 26.2782 8.91543 26.0251 9.02717C25.7721 9.13891 25.5422 9.30392 25.3488 9.51257C25.1555 9.72122 25.0026 9.96934 24.8991 10.2424C24.7956 10.5156 24.7435 10.8082 24.7458 11.1032C24.7482 11.3983 24.805 11.6899 24.9129 11.961C25.0208 12.2322 25.1777 12.4774 25.3744 12.6824L30.0957 17.778H20.653V6.66675C20.653 4.89862 20.0022 3.2029 18.8438 1.95265C17.6853 0.702388 16.1142 0 14.4759 0H6.23978ZM20.653 17.778H10.3578C9.81176 17.778 9.28803 18.0121 8.90189 18.4289C8.51575 18.8456 8.29881 19.4109 8.29881 20.0002C8.29881 20.5896 8.51575 21.1549 8.90189 21.5716C9.28803 21.9884 9.81176 22.2225 10.3578 22.2225H20.653V17.778Z" fill="white"/>
</svg>
