<svg width="37" height="34" viewBox="0 0 37 34" fill="none" xmlns="http://www.w3.org/2000/svg">
<path d="M13.0448 17.659C12.1522 16.7366 10.705 16.7366 9.81232 17.659C8.9197 18.5813 8.9197 20.0768 9.81232 20.9992L16.6695 28.0849C17.5621 29.0072 19.0094 29.0072 19.9019 28.0849L26.7591 20.9992C27.6517 20.0768 27.6517 18.5813 26.7591 17.659C25.8665 16.7366 24.4192 16.7366 23.5266 17.659L20.5714 20.7127V7.51953H32C34.5248 7.51953 36.5714 9.63445 36.5714 12.2433V28.7767C36.5714 31.3856 34.5248 33.5005 32 33.5005H4.57143C2.0467 33.5005 0 31.3856 0 28.7767V12.2433C0 9.63445 2.0467 7.51953 4.57143 7.51953H16V20.7127L13.0448 17.659Z" fill="#374151"/>
<path d="M16 2.7955C16 1.49107 17.0234 0.433594 18.2857 0.433594C19.5481 0.433594 20.5714 1.49107 20.5714 2.7955V7.51931H16V2.7955Z" fill="#374151"/>
</svg>
