<svg width="65" height="65" viewBox="0 0 65 65" fill="none" xmlns="http://www.w3.org/2000/svg">
<g opacity="0.9">
<path d="M35.2083 46.0417H29.7917V35.2083H18.9583V29.7917H29.7917V18.9583H35.2083V29.7917H46.0417V35.2083H35.2083V46.0417ZM51.4583 56.875C52.9479 56.875 54.2235 56.3451 55.2852 55.2852C56.3451 54.2235 56.875 52.9479 56.875 51.4583V13.5417C56.875 12.0521 56.3451 10.7765 55.2852 9.71479C54.2235 8.65493 52.9479 8.125 51.4583 8.125H13.5417C12.0521 8.125 10.7765 8.65493 9.71479 9.71479C8.65493 10.7765 8.125 12.0521 8.125 13.5417V51.4583C8.125 52.9479 8.65493 54.2235 9.71479 55.2852C10.7765 56.3451 12.0521 56.875 13.5417 56.875H51.4583Z" fill="#6C63FF"/>
</g>
</svg>
