<svg width="40" height="40" viewBox="0 0 40 40" fill="none" xmlns="http://www.w3.org/2000/svg">
<g opacity="0.9">
<path d="M32.6667 35L22.1667 24.5C21.3333 25.1667 20.375 25.6944 19.2917 26.0833C18.2083 26.4722 17.0556 26.6667 15.8333 26.6667C12.8056 26.6667 10.2433 25.6183 8.14667 23.5217C6.04889 21.4239 5 18.8611 5 15.8333C5 12.8056 6.04889 10.2428 8.14667 8.145C10.2433 6.04833 12.8056 5 15.8333 5C18.8611 5 21.4239 6.04833 23.5217 8.145C25.6183 10.2428 26.6667 12.8056 26.6667 15.8333C26.6667 17.0556 26.4722 18.2083 26.0833 19.2917C25.6944 20.375 25.1667 21.3333 24.5 22.1667L35 32.6667L32.6667 35ZM15.8333 23.3333C17.9167 23.3333 19.6878 22.6044 21.1467 21.1467C22.6044 19.6878 23.3333 17.9167 23.3333 15.8333C23.3333 13.75 22.6044 11.9789 21.1467 10.52C19.6878 9.06222 17.9167 8.33333 15.8333 8.33333C13.75 8.33333 11.9789 9.06222 10.52 10.52C9.06222 11.9789 8.33333 13.75 8.33333 15.8333C8.33333 17.9167 9.06222 19.6878 10.52 21.1467C11.9789 22.6044 13.75 23.3333 15.8333 23.3333Z" fill="#2F2E41"/>
</g>
</svg>
